{"title":"Battle Royal II 2003 DVDRip XVid AC3- KiNGDOM (Kingdom Release)","uid":5817685,"size":740137520,"categoryP":"video","categoryS":"movies","magnet":"?xt=urn:btih:d5401f3e2dd0fced781099bade47db6eab8044c1&amp;dn=Battle+Royal+II+2003+DVDRip+XVid+AC3-+KiNGDOM+%28Kingdom+Release%29&amp;tr=udp%3A%2F%2Ftracker.openbittorrent.com%3A80&amp;tr=udp%3A%2F%2Fopen.demonii.com%3A1337&amp;tr=udp%3A%2F%2Ftracker.coppersurfer.tk%3A6969&amp;tr=udp%3A%2F%2Fexodus.desync.com%3A6969","seeders":0,"leechers":0,"uploader":"Treezluv2draw","files":6,"time":1283923907,"description":"Three years after the events in &quot;Battle Royale,&quot; Shuya Nanahara (Tatsuya Fujiwara)is a well-known terrorist bent on bringing down the government. In response, they order the creation of the &quot;Battle Royale 2&quot; program, and send a class of junior-high students to catch and kill him. \n\nVideo\nID                               : 0\nFormat                           : MPEG-4 Visual\nFormat profile                   : Advanced Simple@L5\nFormat settings, BVOP            : Yes\nFormat settings, QPel            : No\nFormat settings, GMC             : No warppoints\nFormat settings, Matrix          : Default (H.263)\nMuxing mode                      : Packed bitstream\nCodec ID                         : XVID\nCodec ID/Hint                    : XviD\nDuration                         : 2h 12mn\nBit rate                         : 605 Kbps\nWidth                            : 720 pixels\nHeight                           : 400 pixels\nDisplay aspect ratio             : 16:9\nFrame rate                       : 23.976 fps\nColor space                      : YUV\nChroma subsampling               : 4:2:0\nBit depth                        : 8 bits\nScan type                        : Progressive\nBits/(Pixel*Frame)               : 0.088\nStream size                      : 574 MiB (81%)\nWriting library                  : XviD 1.2.1 (UTC 2008-12-04)\n\nAudio\nID                               : 1\nFormat                           : MPEG Audio\nFormat version                   : Version 1\nFormat profile                   : Layer 3\nCodec ID                         : 55\nCodec ID/Hint                    : MP3\nDuration                         : 2h 12mn\nBit rate mode                    : Constant\nBit rate                         : 128 Kbps\nChannel(s)                       : 2 channels\nSampling rate                    : 44.1 KHz\nStream size                      : 122 MiB (17%)\nAlignment                        : Split accross interleaves\nInterleave, duration             : 42 ms (1.00 video frame)\nInterleave, preload duration     : 500 ms\n\n","torrent":{"xt":"urn:btih:d5401f3e2dd0fced781099bade47db6eab8044c1","amp;dn":"Battle+Royal+II+2003+DVDRip+XVid+AC3-+KiNGDOM+%28Kingdom+Release%29","amp;tr":["udp%3A%2F%2Ftracker.openbittorrent.com%3A80","udp%3A%2F%2Fopen.demonii.com%3A1337","udp%3A%2F%2Ftracker.coppersurfer.tk%3A6969","udp%3A%2F%2Fexodus.desync.com%3A6969"],"infoHash":"d5401f3e2dd0fced781099bade47db6eab8044c1","infoHashBuffer":{"type":"Buffer","data":[213,64,31,62,45,208,252,237,120,16,153,186,222,71,219,110,171,128,68,193]},"announce":[],"urlList":[]}}